<svg width="250" height="60" fill="none" xmlns="http://www.w3.org/2000/svg"><g clip-path="url(#clip0)" fill-rule="evenodd" clip-rule="evenodd" fill="#D6444A"><path d="M91.51 39.254c1.104 0 1.928-.078 2.48-.232.549-.15.952-.482 1.207-.985.254-.506.381-1.29.38-2.35V30.79c0-.816-.072-1.457-.215-1.92-.14-.465-.37-.817-.679-1.049-.312-.23-.71-.386-1.202-.458-.49-.073-1.146-.111-1.97-.111v-5.04c1.603 0 3 .111 4.182.334 1.188.222 2.217.616 3.086 1.182.871.57 1.549 1.38 2.03 2.443.476 1.057.714 2.395.716 4.012v6.14c0 1.617-.239 2.953-.716 4.006-.477 1.053-1.15 1.868-2.024 2.438-.876.574-1.904.97-3.092 1.192-1.182.222-2.58.333-4.183.334v-5.04zm-.005 0h.005v5.04h-.005c-1.6 0-2.996-.112-4.178-.334-1.181-.223-2.212-.618-3.087-1.193-.87-.57-1.548-1.385-2.029-2.437-.475-1.053-.714-2.388-.717-4.007v-6.14c0-1.617.24-2.954.722-4.012.48-1.062 1.16-1.872 2.028-2.442.87-.565 1.898-.959 3.083-1.182 1.182-.223 2.577-.335 4.178-.335h.005v5.04h-.005c-1.091 0-1.909.078-2.453.227a1.83 1.83 0 00-1.187.97c-.255.492-.394 1.274-.422 2.34v4.895c.028 1.072.167 1.857.417 2.356.25.502.649.83 1.192.98.544.155 1.362.232 2.453.232v.002zM78.73 22.391v21.723h-5.77V35.6h-7.533v8.515h-5.77V22.391h5.77v8.168h7.533V22.39h5.77zm-20.896 0l-5.972 10.543 6.439 11.18h-6.717l-4.303-8.37-4.27 8.37h-6.78l6.493-11.18-6.083-10.543h6.746l3.894 7.96 3.923-7.96h6.63zm-33.083 4.75v3.968h9.232v4.021H24.75v4.234h10.04v4.75H18.981V22.39H34.59v4.75h-9.84zm-13.438.29v16.683h-5.77V27.431H0v-5.04h17.135v5.04h-5.822zM237.196 11.61h-10.16l-3.608.01v32.17c0 .5.387.91.861.91h1.94c.476 0 .863-.41.863-.91V17.967c.07-.435.279-.76.799-.846h9.305a.9.9 0 00.892-.901v-3.71a.897.897 0 00-.892-.9zm-29.372 0h10.16l3.609.01v32.17c0 .5-.386.91-.861.91h-1.94c-.477 0-.864-.41-.864-.91V17.967c-.068-.435-.279-.76-.797-.846h-9.307a.9.9 0 01-.892-.901v-3.71a.9.9 0 01.892-.9zM222.51 0c2.524 0 4.582 2.062 4.582 4.592s-2.058 4.593-4.582 4.593c-2.523 0-4.582-2.064-4.582-4.593 0-2.53 2.058-4.592 4.582-4.592zm-70.23 38.553v-5.04h.675c.784 0 1.351-.073 1.698-.212.34-.14.582-.425.711-.854.13-.425.192-1.125.192-2.096 0-.781-.062-1.375-.192-1.785a1.373 1.373 0 00-.736-.875c-.371-.174-.923-.26-1.673-.26h-.675v-5.04h1.838c1.357 0 2.505.152 3.443.454.938.3 1.694.763 2.27 1.39.577.629.999 1.448 1.268 2.458.271 1.013.404 2.23.404 3.659 0 1.593-.107 2.904-.321 3.933-.216 1.03-.591 1.86-1.12 2.477-.53.623-1.273 1.077-2.231 1.362-.959.285-2.198.429-3.718.43l-1.833-.001zm89.474-25.735C246.838 17.823 250 24.785 250 32.462c0 14.87-11.853 27.05-26.573 27.537v-3.675c12.7-.486 22.908-11.017 22.908-23.863a23.782 23.782 0 00-4.921-14.504l.138-.382.113-.441.069-.454.019-.37v-3.493l.001.001zM221.593 60c-14.719-.488-26.573-12.669-26.573-27.537 0-7.678 3.162-14.64 8.246-19.644v3.495l.019.369.069.454.113.44.138.38a23.781 23.781 0 00-4.921 14.505c0 12.845 10.209 23.376 22.908 23.862v3.677l.001-.001zm-52.079-15.886V27.431h9.029v-5.04h-14.799v21.723h5.77zM152.28 22.391v5.04h-3.277v6.082h3.277v5.04h-3.277v5.561h-5.769V22.391h9.046zm-21.682 21.902v-5.039c1.104 0 1.929-.078 2.482-.232.548-.15.952-.482 1.206-.985.255-.506.38-1.289.38-2.35V30.79c0-.816-.072-1.457-.216-1.92-.139-.465-.37-.817-.678-1.049-.313-.23-.711-.386-1.202-.458-.492-.073-1.146-.111-1.971-.111v-5.04c1.604 0 3.001.111 4.183.334 1.188.222 2.216.616 3.086 1.182.871.57 1.55 1.38 2.03 2.443.476 1.057.714 2.395.716 4.012v6.14c0 1.617-.239 2.953-.716 4.006-.476 1.053-1.15 1.868-2.024 2.438-.875.574-1.906.972-3.092 1.192-1.183.221-2.58.332-4.184.333zm0-22.08v5.039h-.005c-1.092 0-1.909.077-2.452.226-.538.15-.934.474-1.188.97-.254.492-.394 1.275-.422 2.341v4.895c.028 1.071.168 1.857.418 2.356.251.502.648.83 1.192.98.543.154 1.36.232 2.452.232h.005v5.04h-.005c-1.6 0-2.996-.112-4.177-.335-1.182-.222-2.213-.617-3.088-1.192-.869-.57-1.547-1.385-2.028-2.437-.477-1.053-.716-2.389-.717-4.007v-6.14c0-1.617.241-2.954.723-4.012.479-1.062 1.158-1.872 2.027-2.442.87-.565 1.898-.959 3.083-1.183 1.182-.222 2.577-.334 4.177-.334l.005.002zm-16.784 5.217v16.683h-5.77V27.431H102.5v-5.04h17.137v5.04l-5.823-.001z"/></g><defs><clipPath id="clip0"><path fill="#fff" d="M0 0h250v60H0z"/></clipPath></defs></svg>